<svg width="364" height="381" viewBox="0 0 364 381" fill="none" xmlns="http://www.w3.org/2000/svg">
<path d="M152.01 0H270.03V59.0133C270.03 91.6056 243.611 118.027 211.02 118.027H152.01V0Z" fill="#F8F8F8"/>
<path d="M93 54C93 24.1766 117.175 0 146.997 0H156.997C186.818 0 210.994 24.1766 210.994 54V125V196C210.994 225.823 186.818 250 156.997 250H146.997C117.175 250 93 225.823 93 196V54Z" fill="#F8F8F8"/>
<rect x="136.147" y="159.264" width="31.7259" height="31.7259" rx="15.8629" fill="#FFCD37"/>
<rect x="136.147" y="109.137" width="31.7259" height="31.7259" rx="15.8629" fill="#FFCD37"/>
<rect x="136.147" y="59.0103" width="31.7259" height="31.7259" rx="15.8629" fill="#FFCD37"/>
<path d="M15.68 328.52V340.36H36.416V348.68H15.68V365H5.312V320.2H39.168V328.52H15.68ZM46.187 320.2H56.555V356.552H79.019V365H46.187V320.2ZM119.5 356.68V365H84.812V320.2H118.668V328.52H95.116V338.248H115.916V346.312H95.116V356.68H119.5ZM149.321 365.768C144.67 365.768 140.467 364.765 136.713 362.76C133.001 360.755 130.078 358.003 127.945 354.504C125.854 350.963 124.809 346.995 124.809 342.6C124.809 338.205 125.854 334.259 127.945 330.76C130.078 327.219 133.001 324.445 136.713 322.44C140.467 320.435 144.67 319.432 149.321 319.432C153.971 319.432 158.153 320.435 161.865 322.44C165.577 324.445 168.499 327.219 170.633 330.76C172.766 334.259 173.833 338.205 173.833 342.6C173.833 346.995 172.766 350.963 170.633 354.504C168.499 358.003 165.577 360.755 161.865 362.76C158.153 364.765 153.971 365.768 149.321 365.768ZM149.321 356.936C151.966 356.936 154.355 356.339 156.489 355.144C158.622 353.907 160.286 352.2 161.481 350.024C162.718 347.848 163.337 345.373 163.337 342.6C163.337 339.827 162.718 337.352 161.481 335.176C160.286 333 158.622 331.315 156.489 330.12C154.355 328.883 151.966 328.264 149.321 328.264C146.675 328.264 144.286 328.883 142.153 330.12C140.019 331.315 138.334 333 137.097 335.176C135.902 337.352 135.305 339.827 135.305 342.6C135.305 345.373 135.902 347.848 137.097 350.024C138.334 352.2 140.019 353.907 142.153 355.144C144.286 356.339 146.675 356.936 149.321 356.936ZM196.345 365.768C192.803 365.768 189.369 365.299 186.041 364.36C182.755 363.379 180.11 362.12 178.105 360.584L181.625 352.776C183.545 354.184 185.827 355.315 188.473 356.168C191.118 357.021 193.763 357.448 196.409 357.448C199.353 357.448 201.529 357.021 202.937 356.168C204.345 355.272 205.049 354.099 205.049 352.648C205.049 351.581 204.622 350.707 203.769 350.024C202.958 349.299 201.891 348.723 200.569 348.296C199.289 347.869 197.539 347.4 195.321 346.888C191.907 346.077 189.113 345.267 186.937 344.456C184.761 343.645 182.883 342.344 181.305 340.552C179.769 338.76 179.001 336.371 179.001 333.384C179.001 330.781 179.705 328.435 181.113 326.344C182.521 324.211 184.633 322.525 187.449 321.288C190.307 320.051 193.785 319.432 197.881 319.432C200.739 319.432 203.534 319.773 206.265 320.456C208.995 321.139 211.385 322.12 213.433 323.4L210.233 331.272C206.094 328.925 201.955 327.752 197.817 327.752C194.915 327.752 192.761 328.221 191.353 329.16C189.987 330.099 189.305 331.336 189.305 332.872C189.305 334.408 190.094 335.56 191.673 336.328C193.294 337.053 195.747 337.779 199.033 338.504C202.446 339.315 205.241 340.125 207.417 340.936C209.593 341.747 211.449 343.027 212.985 344.776C214.563 346.525 215.353 348.893 215.353 351.88C215.353 354.44 214.627 356.787 213.177 358.92C211.769 361.011 209.635 362.675 206.777 363.912C203.918 365.149 200.441 365.768 196.345 365.768ZM243.877 365.768C239.312 365.768 235.173 364.787 231.461 362.824C227.792 360.819 224.89 358.067 222.757 354.568C220.666 351.027 219.621 347.037 219.621 342.6C219.621 338.163 220.666 334.195 222.757 330.696C224.89 327.155 227.792 324.403 231.461 322.44C235.173 320.435 239.333 319.432 243.941 319.432C247.824 319.432 251.322 320.115 254.437 321.48C257.594 322.845 260.24 324.808 262.373 327.368L255.717 333.512C252.688 330.013 248.933 328.264 244.453 328.264C241.68 328.264 239.205 328.883 237.029 330.12C234.853 331.315 233.146 333 231.909 335.176C230.714 337.352 230.117 339.827 230.117 342.6C230.117 345.373 230.714 347.848 231.909 350.024C233.146 352.2 234.853 353.907 237.029 355.144C239.205 356.339 241.68 356.936 244.453 356.936C248.933 356.936 252.688 355.165 255.717 351.624L262.373 357.768C260.24 360.371 257.594 362.355 254.437 363.72C251.28 365.085 247.76 365.768 243.877 365.768ZM298.004 355.4H277.204L273.236 365H262.611L282.58 320.2H292.82L312.852 365H301.972L298.004 355.4ZM294.74 347.528L287.636 330.376L280.532 347.528H294.74ZM358.588 320.2V365H350.076L327.74 337.8V365H317.5V320.2H326.076L348.347 347.4V320.2H358.588Z" fill="#F8F8F8"/>
</svg>
