<svg width="500" height="500" viewBox="0 0 500 500" fill="none" xmlns="http://www.w3.org/2000/svg">
<rect width="500" height="500" rx="166" fill="#FFCD37"/>
<path d="M211.354 88.3262H364V164.654C364 206.808 329.829 240.981 287.677 240.981H211.354V88.3262Z" fill="#95B2CC"/>
<path d="M135.03 158.169C135.03 119.596 166.298 88.3262 204.87 88.3262H217.803C256.374 88.3262 287.642 119.596 287.642 158.169V250V341.831C287.642 380.404 256.374 411.674 217.803 411.674H204.87C166.298 411.674 135.03 380.404 135.03 341.831V158.169Z" fill="#5998CF"/>
<rect x="190.836" y="294.317" width="41.034" height="41.034" rx="20.517" fill="white"/>
<rect x="190.836" y="229.483" width="41.034" height="41.034" rx="20.517" fill="white"/>
<rect x="190.836" y="164.649" width="41.034" height="41.034" rx="20.517" fill="white"/>
<path d="M211.333 88.6094H364V164.947C364 207.107 329.825 241.284 287.667 241.284H211.333V88.6094Z" fill="#F8F8F8"/>
<path d="M135 158.462C135 119.883 166.272 88.6094 204.849 88.6094H217.784C256.36 88.6094 287.632 119.883 287.632 158.462V250.305V342.148C287.632 380.726 256.36 412 217.784 412H204.849C166.272 412 135 380.726 135 342.148V158.462Z" fill="#F8F8F8"/>
<rect x="190.814" y="294.627" width="41.0394" height="41.0394" rx="20.5197" fill="#FFCD37"/>
<rect x="190.814" y="229.785" width="41.0394" height="41.0394" rx="20.5197" fill="#FFCD37"/>
<rect x="190.814" y="164.943" width="41.0394" height="41.0394" rx="20.5197" fill="#FFCD37"/>
</svg>
