<svg width="452" height="420" viewBox="0 0 452 420" fill="none" xmlns="http://www.w3.org/2000/svg">
<g filter="url(#filter0_d)">
<path d="M23.68 328.52V340.36H44.416V348.68H23.68V365H13.312V320.2H47.168V328.52H23.68ZM54.187 320.2H64.555V356.552H87.019V365H54.187V320.2ZM127.5 356.68V365H92.812V320.2H126.668V328.52H103.116V338.248H123.916V346.312H103.116V356.68H127.5ZM157.321 365.768C152.67 365.768 148.467 364.765 144.713 362.76C141.001 360.755 138.078 358.003 135.945 354.504C133.854 350.963 132.809 346.995 132.809 342.6C132.809 338.205 133.854 334.259 135.945 330.76C138.078 327.219 141.001 324.445 144.713 322.44C148.467 320.435 152.67 319.432 157.321 319.432C161.971 319.432 166.153 320.435 169.865 322.44C173.577 324.445 176.499 327.219 178.633 330.76C180.766 334.259 181.833 338.205 181.833 342.6C181.833 346.995 180.766 350.963 178.633 354.504C176.499 358.003 173.577 360.755 169.865 362.76C166.153 364.765 161.971 365.768 157.321 365.768ZM157.321 356.936C159.966 356.936 162.355 356.339 164.489 355.144C166.622 353.907 168.286 352.2 169.481 350.024C170.718 347.848 171.337 345.373 171.337 342.6C171.337 339.827 170.718 337.352 169.481 335.176C168.286 333 166.622 331.315 164.489 330.12C162.355 328.883 159.966 328.264 157.321 328.264C154.675 328.264 152.286 328.883 150.153 330.12C148.019 331.315 146.334 333 145.097 335.176C143.902 337.352 143.305 339.827 143.305 342.6C143.305 345.373 143.902 347.848 145.097 350.024C146.334 352.2 148.019 353.907 150.153 355.144C152.286 356.339 154.675 356.936 157.321 356.936Z" fill="#5998CF"/>
<path d="M204.345 365.768C200.803 365.768 197.369 365.299 194.041 364.36C190.755 363.379 188.11 362.12 186.105 360.584L189.625 352.776C191.545 354.184 193.827 355.315 196.473 356.168C199.118 357.021 201.763 357.448 204.409 357.448C207.353 357.448 209.529 357.021 210.937 356.168C212.345 355.272 213.049 354.099 213.049 352.648C213.049 351.581 212.622 350.707 211.769 350.024C210.958 349.299 209.891 348.723 208.569 348.296C207.289 347.869 205.539 347.4 203.321 346.888C199.907 346.077 197.113 345.267 194.937 344.456C192.761 343.645 190.883 342.344 189.305 340.552C187.769 338.76 187.001 336.371 187.001 333.384C187.001 330.781 187.705 328.435 189.113 326.344C190.521 324.211 192.633 322.525 195.449 321.288C198.307 320.051 201.785 319.432 205.881 319.432C208.739 319.432 211.534 319.773 214.265 320.456C216.995 321.139 219.385 322.12 221.433 323.4L218.233 331.272C214.094 328.925 209.955 327.752 205.817 327.752C202.915 327.752 200.761 328.221 199.353 329.16C197.987 330.099 197.305 331.336 197.305 332.872C197.305 334.408 198.094 335.56 199.673 336.328C201.294 337.053 203.747 337.779 207.033 338.504C210.446 339.315 213.241 340.125 215.417 340.936C217.593 341.747 219.449 343.027 220.985 344.776C222.563 346.525 223.353 348.893 223.353 351.88C223.353 354.44 222.627 356.787 221.177 358.92C219.769 361.011 217.635 362.675 214.777 363.912C211.918 365.149 208.441 365.768 204.345 365.768ZM251.877 365.768C247.312 365.768 243.173 364.787 239.461 362.824C235.792 360.819 232.89 358.067 230.757 354.568C228.666 351.027 227.621 347.037 227.621 342.6C227.621 338.163 228.666 334.195 230.757 330.696C232.89 327.155 235.792 324.403 239.461 322.44C243.173 320.435 247.333 319.432 251.941 319.432C255.824 319.432 259.322 320.115 262.437 321.48C265.594 322.845 268.24 324.808 270.373 327.368L263.717 333.512C260.688 330.013 256.933 328.264 252.453 328.264C249.68 328.264 247.205 328.883 245.029 330.12C242.853 331.315 241.146 333 239.909 335.176C238.714 337.352 238.117 339.827 238.117 342.6C238.117 345.373 238.714 347.848 239.909 350.024C241.146 352.2 242.853 353.907 245.029 355.144C247.205 356.339 249.68 356.936 252.453 356.936C256.933 356.936 260.688 355.165 263.717 351.624L270.373 357.768C268.24 360.371 265.594 362.355 262.437 363.72C259.28 365.085 255.76 365.768 251.877 365.768ZM306.004 355.4H285.204L281.236 365H270.611L290.58 320.2H300.82L320.852 365H309.972L306.004 355.4ZM302.74 347.528L295.636 330.376L288.532 347.528H302.74ZM366.588 320.2V365H358.076L335.74 337.8V365H325.5V320.2H334.076L356.347 347.4V320.2H366.588Z" fill="#95B2CC"/>
</g>
<path d="M160.01 0H278.031V59.0133C278.031 91.6056 251.611 118.027 219.02 118.027H160.01V0Z" fill="#95B2CC"/>
<path d="M101 54C101 24.1766 125.175 0 154.997 0H164.997C194.818 0 218.994 24.1766 218.994 54V125V196C218.994 225.823 194.818 250 164.997 250H154.997C125.175 250 101 225.823 101 196V54Z" fill="#5998CF"/>
<rect x="144.147" y="159.264" width="31.7259" height="31.7259" rx="15.8629" fill="white"/>
<rect x="144.147" y="109.137" width="31.7259" height="31.7259" rx="15.8629" fill="white"/>
<rect x="144.147" y="59.0103" width="31.7259" height="31.7259" rx="15.8629" fill="white"/>
<defs>
<filter id="filter0_d" x="0.312012" y="275.432" width="451.276" height="144.336" filterUnits="userSpaceOnUse" color-interpolation-filters="sRGB">
<feFlood flood-opacity="0" result="BackgroundImageFix"/>
<feColorMatrix in="SourceAlpha" type="matrix" values="0 0 0 0 0 0 0 0 0 0 0 0 0 0 0 0 0 0 127 0"/>
<feOffset dx="36" dy="5"/>
<feGaussianBlur stdDeviation="24.5"/>
<feColorMatrix type="matrix" values="0 0 0 0 0 0 0 0 0 0 0 0 0 0 0 0 0 0 0.1 0"/>
<feBlend mode="normal" in2="BackgroundImageFix" result="effect1_dropShadow"/>
<feBlend mode="normal" in="SourceGraphic" in2="effect1_dropShadow" result="shape"/>
</filter>
</defs>
</svg>
